<svg xmlns="http://www.w3.org/2000/svg" viewBox="0 0 512 512" width="512" height="512">
  <defs>
    <filter id="soft" x="-20%" y="-20%" width="140%" height="140%">
      <feDropShadow dx="0" dy="8" stdDeviation="10" flood-color="#000000" flood-opacity="0.14"/>
    </filter>
    <linearGradient id="sheen" x1="0" y1="0" x2="1" y2="1">
      <stop offset="0" stop-color="#FFFFFF" stop-opacity="0.6"/>
      <stop offset="0.5" stop-color="#FFFFFF" stop-opacity="0"/>
      <stop offset="1" stop-color="#000000" stop-opacity="0.08"/>
    </linearGradient>
    <filter id="glow" x="-40%" y="-40%" width="180%" height="180%">
      <feGaussianBlur in="SourceGraphic" stdDeviation="9"/>
      <feColorMatrix type="matrix" values="1 0 0 0 0  0 1 0 0 0  0 0 1 0 0  0 0 0 0.45 0"/>
      <feOffset dy="6"/>
      <feMerge><feMergeNode/><feMergeNode in="SourceGraphic"/></feMerge>
    </filter>
  </defs>
  <rect width="512" height="512" fill="#FFFFFF"/>
  <rect width="512" height="512" fill="#7DE31A"/>
  <g filter="url(#glow)"><circle cx="52" cy="150" r="118" fill="#70B3F7"/></g><circle cx="52" cy="150" r="118" fill="url(#sheen)"/><g transform="translate(52 150)"><circle cx="-2" cy="-12" r="16" fill="#FFFFFF"/><circle cx="1" cy="-10" r="8.8" fill="#121214"/><circle cx="42" cy="-12" r="16" fill="#FFFFFF"/><circle cx="45" cy="-10" r="8.8" fill="#121214"/><path d="M4 26 Q22 44 42 26" fill="none" stroke="#121214" stroke-width="7" stroke-linecap="round" stroke-linejoin="round"/><path d="M-40 -62 Q-30 -120 40 -126 Q70 -128 80 -118" fill="none" stroke="#121214" stroke-width="7" stroke-linecap="round" stroke-linejoin="round"/><circle cx="88" cy="-112" r="9" fill="none" stroke="#121214" stroke-width="7" stroke-linecap="round" stroke-linejoin="round"/></g><g filter="url(#glow)"><circle cx="92" cy="452" r="86" fill="#FFC94D"/></g><circle cx="92" cy="452" r="86" fill="url(#sheen)"/><g transform="translate(92 452)"><circle cx="-14" cy="-12" r="14" fill="#FFFFFF"/><circle cx="-11" cy="-10" r="7.700000000000001" fill="#121214"/><circle cx="22" cy="-12" r="14" fill="#FFFFFF"/><circle cx="25" cy="-10" r="7.700000000000001" fill="#121214"/><circle cx="4" cy="22" r="8" fill="none" stroke="#121214" stroke-width="7" stroke-linecap="round" stroke-linejoin="round"/></g><g filter="url(#glow)"><circle cx="432" cy="452" r="72" fill="#FF7A6E"/></g><circle cx="432" cy="452" r="72" fill="url(#sheen)"/><g transform="translate(432 452)"><circle cx="-16" cy="-14" r="11" fill="#FFFFFF"/><circle cx="-14" cy="-11" r="6.050000000000001" fill="#121214"/><circle cx="10" cy="-14" r="11" fill="#FFFFFF"/><circle cx="12" cy="-11" r="6.050000000000001" fill="#121214"/><path d="M-14 12 Q-2 24 12 10" fill="none" stroke="#121214" stroke-width="7" stroke-linecap="round" stroke-linejoin="round"/></g><g filter="url(#glow)"><circle cx="468" cy="178" r="100" fill="#F599C9"/></g><circle cx="468" cy="178" r="100" fill="url(#sheen)"/><g transform="translate(468 178)"><circle cx="-40" cy="-8" r="15" fill="#FFFFFF"/><circle cx="-37" cy="-6" r="8.25" fill="#121214"/><path d="M-6 -12 Q6 2 18 -14" fill="none" stroke="#121214" stroke-width="7" stroke-linecap="round" stroke-linejoin="round"/><path d="M-36 22 Q-16 42 6 20" fill="none" stroke="#121214" stroke-width="7" stroke-linecap="round" stroke-linejoin="round"/></g>
  <g transform="translate(318 34) rotate(-6)">
    <path d="M0 34 Q0 0 40 0 L118 0 Q150 0 150 34 Q150 66 118 66 L104 66 L112 88 L84 66 L40 66 Q0 66 0 34 Z" fill="#121214"/>
    <text x="75" y="46" text-anchor="middle" font-family="'Arial Rounded MT Bold', ArialRoundedMTBold, Nunito, 'Varela Round', sans-serif" font-weight="800" font-size="32" fill="#FFFFFF">Deal?</text>
  </g>
  <g transform="translate(256 286) scale(1.0) translate(-256 -247)">
  <g transform="translate(256 466)" filter="url(#soft)">
    <g transform="rotate(-24)"><rect x="-75" y="-340" width="150" height="210" rx="20" fill="#FFFFFF" stroke="#121214" stroke-width="8"/><text x="-56" y="-284" font-family="'Arial Rounded MT Bold', ArialRoundedMTBold, Nunito, 'Varela Round', sans-serif" font-weight="700" font-size="50" fill="#121214">A</text><g transform="translate(-38 -250) scale(30)" fill="#121214"><path d="M-0.22 -0.24 a0.22 0.22 0 1 0 0.44 0 a0.22 0.22 0 1 0 -0.44 0 Z"/><path d="M-0.46 0.1 a0.22 0.22 0 1 0 0.44 0 a0.22 0.22 0 1 0 -0.44 0 Z"/><path d="M0.02 0.1 a0.22 0.22 0 1 0 0.44 0 a0.22 0.22 0 1 0 -0.44 0 Z"/><path d="M-0.07 0 L0.07 0 L0.16 0.5 L-0.16 0.5 Z"/></g></g>
    <g transform="rotate(-8)"><rect x="-75" y="-340" width="150" height="210" rx="20" fill="#FFFFFF" stroke="#121214" stroke-width="8"/><text x="-56" y="-284" font-family="'Arial Rounded MT Bold', ArialRoundedMTBold, Nunito, 'Varela Round', sans-serif" font-weight="700" font-size="50" fill="#FF618F">A</text><g transform="translate(-38 -250) scale(30)" fill="#FF618F"><path d="M0 -0.5 C0.12 -0.3 0.26 -0.14 0.38 0 C0.26 0.14 0.12 0.3 0 0.5 C-0.12 0.3 -0.26 0.14 -0.38 0 C-0.26 -0.14 -0.12 -0.3 0 -0.5 Z"/></g></g>
    <g transform="rotate(8)"><rect x="-75" y="-340" width="150" height="210" rx="20" fill="#FFFFFF" stroke="#121214" stroke-width="8"/><text x="-56" y="-284" font-family="'Arial Rounded MT Bold', ArialRoundedMTBold, Nunito, 'Varela Round', sans-serif" font-weight="700" font-size="50" fill="#FF618F">A</text><g transform="translate(-38 -250) scale(30)" fill="#FF618F"><path d="M0 0.46 C-0.3 0.22 -0.5 0.02 -0.5 -0.2 C-0.5 -0.4 -0.34 -0.5 -0.22 -0.5 C-0.1 -0.5 -0.02 -0.42 0 -0.32 C0.02 -0.42 0.1 -0.5 0.22 -0.5 C0.34 -0.5 0.5 -0.4 0.5 -0.2 C0.5 0.02 0.3 0.22 0 0.46 Z"/></g></g>
    <g transform="rotate(24)"><rect x="-75" y="-340" width="150" height="210" rx="20" fill="#FFFFFF" stroke="#121214" stroke-width="8"/><text x="-56" y="-284" font-family="'Arial Rounded MT Bold', ArialRoundedMTBold, Nunito, 'Varela Round', sans-serif" font-weight="700" font-size="50" fill="#121214">A</text><g transform="translate(-38 -250) scale(30)" fill="#121214"><path d="M0 -0.5 C-0.42 -0.16 -0.52 0.06 -0.38 0.22 C-0.26 0.34 -0.1 0.3 -0.05 0.2 L-0.15 0.5 L0.15 0.5 L0.05 0.2 C0.1 0.3 0.26 0.34 0.38 0.22 C0.52 0.06 0.42 -0.16 0 -0.5 Z"/></g><g transform="translate(8 -212) scale(80)" fill="#121214"><path d="M0 -0.5 C-0.42 -0.16 -0.52 0.06 -0.38 0.22 C-0.26 0.34 -0.1 0.3 -0.05 0.2 L-0.15 0.5 L0.15 0.5 L0.05 0.2 C0.1 0.3 0.26 0.34 0.38 0.22 C0.52 0.06 0.42 -0.16 0 -0.5 Z"/></g></g>
  </g>
  </g>
</svg>
